<?xml version="1.0" encoding="UTF-8"?>
<!DOCTYPE svg PUBLIC "-//W3C//DTD SVG 1.1//EN" "http://www.w3.org/Graphics/SVG/1.1/DTD/svg11.dtd">
<svg xmlns="http://www.w3.org/2000/svg" xmlns:xlink="http://www.w3.org/1999/xlink" version="1.1" width="467px" height="82px" viewBox="-0.5 -0.5 467 82"><defs/><g><rect x="0" y="0" width="80" height="80" fill="none" stroke="rgb(0, 0, 0)" pointer-events="all"/><path d="M 0 20 L 80 20" fill="none" stroke="rgb(0, 0, 0)" stroke-miterlimit="10" pointer-events="stroke"/><path d="M 0 40 L 80 40" fill="none" stroke="rgb(0, 0, 0)" stroke-miterlimit="10" pointer-events="stroke"/><path d="M 0 60 L 80 60" fill="none" stroke="rgb(0, 0, 0)" stroke-miterlimit="10" pointer-events="stroke"/><path d="M 20 80 L 20 0" fill="none" stroke="rgb(0, 0, 0)" stroke-miterlimit="10" pointer-events="stroke"/><path d="M 40 80 L 40 0" fill="none" stroke="rgb(0, 0, 0)" stroke-miterlimit="10" pointer-events="stroke"/><path d="M 60 80 L 60 0" fill="none" stroke="rgb(0, 0, 0)" stroke-miterlimit="10" pointer-events="stroke"/><rect x="0" y="0" width="60" height="60" fill="#dae8fc" stroke="#6c8ebf" pointer-events="all"/><rect x="0" y="0" width="60" height="60" fill="#dae8fc" stroke="#6c8ebf" pointer-events="all"/><rect x="0" y="0" width="60" height="60" fill="#dae8fc" stroke="#6c8ebf" pointer-events="all"/><path d="M 0.36 39.96 L 60.24 40.02" fill="none" stroke="#6c8ebf" stroke-miterlimit="10" pointer-events="stroke"/><path d="M 0 20 L 60 20" fill="none" stroke="#6c8ebf" stroke-miterlimit="10" pointer-events="stroke"/><path d="M 19.68 0.18 L 19.92 59.88" fill="none" stroke="#6c8ebf" stroke-miterlimit="10" pointer-events="stroke"/><path d="M 40 0 L 40 60" fill="none" stroke="#6c8ebf" stroke-miterlimit="10" pointer-events="stroke"/><path d="M 90 39.83 L 103.63 39.83" fill="none" stroke="rgb(0, 0, 0)" stroke-miterlimit="10" pointer-events="stroke"/><path d="M 108.88 39.83 L 101.88 43.33 L 103.63 39.83 L 101.88 36.33 Z" fill="rgb(0, 0, 0)" stroke="rgb(0, 0, 0)" stroke-miterlimit="10" pointer-events="all"/><ellipse cx="239" cy="40" rx="5" ry="5" fill="rgb(255, 255, 255)" stroke="rgb(0, 0, 0)" pointer-events="all"/><rect x="164" y="10" width="60" height="60" fill="#dae8fc" stroke="#6c8ebf" pointer-events="all"/><rect x="254" y="10" width="60" height="60" fill="#fff2cc" stroke="#d6b656" pointer-events="all"/><path d="M 164 0 L 164 0 Q 144 40 164 80 L 164 80 Q 144 40 164 0 Z" fill="rgb(255, 255, 255)" stroke="rgb(0, 0, 0)" stroke-miterlimit="10" pointer-events="all"/><path d="M 324 0 L 324 0 Q 304 40 324 80 L 324 80 Q 304 40 324 0 Z" fill="rgb(255, 255, 255)" stroke="rgb(0, 0, 0)" stroke-miterlimit="10" transform="rotate(180,319,40)" pointer-events="all"/><path d="M 149 20 L 119 20 L 139 40 L 119 60 L 149 60" fill="none" stroke="rgb(0, 0, 0)" stroke-miterlimit="10" pointer-events="stroke"/><rect x="164" y="10" width="60" height="60" fill="#dae8fc" stroke="#6c8ebf" pointer-events="all"/><rect x="164" y="10" width="60" height="60" fill="#dae8fc" stroke="#6c8ebf" pointer-events="all"/><path d="M 164.36 49.96 L 224.24 50.02" fill="none" stroke="#6c8ebf" stroke-miterlimit="10" pointer-events="stroke"/><path d="M 164 30 L 224 30" fill="none" stroke="#6c8ebf" stroke-miterlimit="10" pointer-events="stroke"/><path d="M 183.68 10.18 L 183.92 69.88" fill="none" stroke="#6c8ebf" stroke-miterlimit="10" pointer-events="stroke"/><path d="M 204 10 L 204 70" fill="none" stroke="#6c8ebf" stroke-miterlimit="10" pointer-events="stroke"/><rect x="254" y="10" width="60" height="60" fill="#fff2cc" stroke="#d6b656" pointer-events="all"/><rect x="254" y="10" width="60" height="60" fill="#fff2cc" stroke="#d6b656" pointer-events="all"/><path d="M 254.36 49.96 L 314.24 50.02" fill="none" stroke="#d6b656" stroke-miterlimit="10" pointer-events="stroke"/><path d="M 254 30 L 314 30" fill="none" stroke="#d6b656" stroke-miterlimit="10" pointer-events="stroke"/><path d="M 273.68 10.18 L 273.92 69.88" fill="none" stroke="#d6b656" stroke-miterlimit="10" pointer-events="stroke"/><path d="M 294 10 L 294 70" fill="none" stroke="#d6b656" stroke-miterlimit="10" pointer-events="stroke"/><path d="M 335 39.83 L 348.63 39.83" fill="none" stroke="rgb(0, 0, 0)" stroke-miterlimit="10" pointer-events="stroke"/><path d="M 353.88 39.83 L 346.88 43.33 L 348.63 39.83 L 346.88 36.33 Z" fill="rgb(0, 0, 0)" stroke="rgb(0, 0, 0)" stroke-miterlimit="10" pointer-events="all"/><rect x="364" y="30" width="20" height="20" fill="#d5e8d4" stroke="#82b366" pointer-events="all"/><rect x="364" y="30" width="20" height="20" fill="#d5e8d4" stroke="#82b366" pointer-events="all"/><rect x="425" y="20" width="40" height="40" fill="rgb(255, 255, 255)" stroke="rgb(0, 0, 0)" pointer-events="all"/><path d="M 445 60 L 445 20" fill="none" stroke="rgb(0, 0, 0)" stroke-miterlimit="10" pointer-events="stroke"/><path d="M 425 40 L 465 40" fill="none" stroke="rgb(0, 0, 0)" stroke-miterlimit="10" pointer-events="stroke"/><rect x="425" y="20" width="20" height="20" fill="#d5e8d4" stroke="#82b366" pointer-events="all"/><path d="M 395 39.88 L 408.63 39.88" fill="none" stroke="rgb(0, 0, 0)" stroke-miterlimit="10" pointer-events="stroke"/><path d="M 413.88 39.88 L 406.88 43.38 L 408.63 39.88 L 406.88 36.38 Z" fill="rgb(0, 0, 0)" stroke="rgb(0, 0, 0)" stroke-miterlimit="10" pointer-events="all"/></g></svg>